<svg width="42" height="42" viewBox="0 0 42 42" fill="none" xmlns="http://www.w3.org/2000/svg">
<path d="M20.9987 39.3724C33.2496 39.3724 39.3724 31.1456 39.3724 20.9974C39.3724 10.8518 33.2496 2.625 20.9974 2.625C8.74781 2.625 2.625 10.8517 2.625 20.9987C2.625 31.1456 8.7465 39.3724 20.9987 39.3724Z" fill="#FFB02E"/>
<path d="M17.6492 19.8267C17.9603 19.9824 18.1968 20.2553 18.3068 20.5853C18.4168 20.9153 18.3913 21.2755 18.2359 21.5868C17.2883 23.482 15.3641 24.4822 13.524 24.7473C11.7023 25.0098 9.62064 24.6029 8.25958 23.2405C8.13422 23.1195 8.03423 22.9746 7.96544 22.8145C7.89666 22.6544 7.86045 22.4821 7.85894 22.3079C7.85742 22.1336 7.89063 21.9608 7.95662 21.7995C8.02262 21.6382 8.12007 21.4916 8.24331 21.3684C8.36654 21.2451 8.51309 21.1477 8.67439 21.0817C8.83569 21.0157 9.00852 20.9825 9.18279 20.984C9.35706 20.9855 9.52929 21.0217 9.68942 21.0905C9.84955 21.1593 9.99438 21.2593 10.1155 21.3847C10.7231 21.9923 11.8768 22.3323 13.1486 22.1485C14.4047 21.9674 15.4324 21.3256 15.8891 20.4134C16.0446 20.1021 16.3174 19.8653 16.6474 19.755C16.9775 19.6447 17.3378 19.6701 17.6492 19.8254M24.3508 19.8267C24.0397 19.9824 23.8032 20.2553 23.6932 20.5853C23.5832 20.9153 23.6087 21.2755 23.7641 21.5868C24.7118 23.482 26.6359 24.4822 28.476 24.7473C30.2978 25.0098 32.3794 24.6029 33.7405 23.2405C33.9795 22.993 34.1118 22.6614 34.1088 22.3173C34.1058 21.9732 33.9678 21.644 33.7245 21.4006C33.4811 21.1573 33.1519 21.0193 32.8078 21.0163C32.4637 21.0133 32.1321 21.1456 31.8846 21.3847C31.2769 21.9923 30.1232 22.3323 28.8514 22.1485C27.5953 21.9674 26.5676 21.3256 26.1109 20.4134C25.9554 20.1021 25.6826 19.8653 25.3526 19.755C25.0225 19.6447 24.6622 19.6701 24.3508 19.8254M15.4324 32.453C16.9061 30.9727 18.9069 30.1378 20.9956 30.1314C23.0843 30.125 25.0902 30.9477 26.5729 32.4188C26.6953 32.5403 26.8404 32.6364 26.9999 32.7018C27.1594 32.7671 27.3303 32.8004 27.5027 32.7997C27.675 32.7991 27.8456 32.7644 28.0046 32.6978C28.1637 32.6313 28.308 32.534 28.4294 32.4116C28.5508 32.2892 28.647 32.1441 28.7123 31.9846C28.7777 31.8251 28.811 31.6543 28.8103 31.4819C28.8096 31.3095 28.775 31.1389 28.7084 30.9799C28.6418 30.8209 28.5446 30.6765 28.4222 30.5551C26.446 28.5944 23.7726 27.4979 20.9888 27.5063C18.205 27.5146 15.5383 28.6272 13.5739 30.5997C13.4487 30.721 13.3489 30.8659 13.2804 31.0262C13.2118 31.1864 13.1759 31.3587 13.1746 31.5329C13.1734 31.7072 13.2068 31.88 13.273 32.0412C13.3393 32.2024 13.4369 32.3488 13.5603 32.4718C13.6837 32.5949 13.8304 32.6921 13.9918 32.7579C14.1532 32.8237 14.326 32.8566 14.5003 32.8549C14.6746 32.8531 14.8467 32.8167 15.0068 32.7477C15.1668 32.6787 15.3115 32.5785 15.4324 32.453Z" fill="#402A32"/>
</svg>
