<svg width="42" height="42" viewBox="0 0 42 42" fill="none" xmlns="http://www.w3.org/2000/svg">
<path d="M20.9987 39.3724C33.2496 39.3724 39.3724 31.1456 39.3724 20.9974C39.3724 10.8518 33.2496 2.625 20.9974 2.625C8.74781 2.625 2.625 10.8517 2.625 20.9987C2.625 31.1456 8.7465 39.3724 20.9987 39.3724Z" fill="#FFB02E"/>
<path d="M15.5405 24.2248C15.3537 23.931 15.0579 23.7234 14.7181 23.6477C14.3783 23.572 14.0224 23.6344 13.7286 23.8212C13.4348 24.008 13.2272 24.3038 13.1515 24.6436C13.0758 24.9834 13.1382 25.3393 13.325 25.6331L13.3263 25.6357L13.3289 25.6397L13.3342 25.6475L13.346 25.6646C13.3859 25.7263 13.4284 25.7863 13.4733 25.8444C13.552 25.9494 13.6662 26.0872 13.8145 26.246C14.1112 26.5624 14.5535 26.9627 15.1664 27.3551C16.4067 28.1479 18.2928 28.875 21.0005 28.875C23.7082 28.875 25.5942 28.1479 26.8345 27.3551C27.3292 27.0426 27.7833 26.6701 28.1864 26.246C28.3562 26.0636 28.5128 25.8693 28.655 25.6646L28.6681 25.6475L28.672 25.6397L28.6734 25.637L28.6747 25.6357V25.6331C28.8455 25.34 28.8963 24.9922 28.8162 24.6625C28.7362 24.3328 28.5317 24.047 28.2455 23.8648C27.9593 23.6827 27.6137 23.6184 27.2811 23.6855C26.9486 23.7526 26.6549 23.9459 26.4618 24.2248L26.4382 24.2563C26.3862 24.3232 26.331 24.3876 26.2728 24.4492C26.0182 24.7154 25.7317 24.9491 25.4197 25.1449C24.6059 25.6646 23.212 26.25 21.0005 26.25C18.7889 26.25 17.3937 25.6646 16.5813 25.1449C16.2693 24.9491 15.9827 24.7154 15.7282 24.4492C15.661 24.378 15.5979 24.3031 15.5392 24.2248" fill="#402A32"/>
<path d="M14.4375 6.5625H6.5625C5.17011 6.5625 3.83476 7.11562 2.85019 8.10019C1.86562 9.08476 1.3125 10.4201 1.3125 11.8125V12.6971C1.3128 14.4032 1.78814 16.0755 2.68526 17.5267C3.58239 18.9778 4.86585 20.1505 6.39187 20.9134L7.61906 21.5289C8.53389 21.9822 9.53053 22.2468 10.5497 22.307C11.5689 22.3672 12.5897 22.2218 13.5516 21.8794C17.2082 20.5734 19.6875 17.0953 19.6875 13.2129V11.8125C19.6875 10.4201 19.1344 9.08476 18.1498 8.10019C17.1652 7.11562 15.8299 6.5625 14.4375 6.5625ZM26.9062 6.5625H36.0938C37.3121 6.5625 38.4805 7.04648 39.342 7.90798C40.2035 8.76947 40.6875 9.93791 40.6875 11.1562V12.6971C40.6872 14.4032 40.2119 16.0755 39.3147 17.5267C38.4176 18.9778 37.1341 20.1505 35.6081 20.9134L34.3809 21.5289C33.4661 21.9822 32.4695 22.2468 31.4503 22.307C30.4311 22.3672 29.4103 22.2218 28.4484 21.8794C24.7918 20.5734 22.3125 17.0953 22.3125 13.2129V11.1562C22.3125 9.93791 22.7965 8.76947 23.658 7.90798C24.5195 7.04648 25.6879 6.5625 26.9062 6.5625Z" fill="#321B41"/>
<path d="M18.375 8.33963C17.8823 7.78105 17.2764 7.3337 16.5975 7.0273C15.9186 6.7209 15.1823 6.56246 14.4375 6.5625H6.5625C5.17011 6.5625 3.83476 7.11562 2.85019 8.10019C1.86562 9.08476 1.3125 10.4201 1.3125 11.8125V12.6971C1.3128 14.4032 1.78814 16.0755 2.68526 17.5267C3.58239 18.9778 4.86585 20.1505 6.39187 20.9134L7.61906 21.5289C8.53389 21.9822 9.53053 22.2468 10.5497 22.307C11.5689 22.3672 12.5897 22.2218 13.5516 21.8794C17.2082 20.5734 19.6875 17.0953 19.6875 13.2129V13.125C19.6875 12.7769 19.8258 12.4431 20.0719 12.1969C20.3181 11.9508 20.6519 11.8125 21 11.8125C21.3481 11.8125 21.6819 11.9508 21.9281 12.1969C22.1742 12.4431 22.3125 12.7769 22.3125 13.125V13.2129C22.3125 17.0953 24.7918 20.5734 28.4484 21.8794C29.4103 22.2218 30.4311 22.3672 31.4503 22.307C32.4695 22.2468 33.4661 21.9822 34.3809 21.5289L35.6094 20.9147C37.1354 20.1515 38.4187 18.9786 39.3156 17.5272C40.2125 16.0758 40.6876 14.4033 40.6875 12.6971V11.1562C40.6875 9.93791 40.2035 8.76947 39.342 7.90798C38.4805 7.04648 37.3121 6.5625 36.0938 6.5625H26.9062C25.431 6.5625 24.1185 7.25813 23.2772 8.33963V8.33437L23.2116 8.4C22.9609 8.65856 22.4477 9.18225 21.9713 9.18619H19.6823C19.2045 9.18225 18.6926 8.65856 18.4406 8.4L18.375 8.33437V8.33963ZM14.4375 7.875C15.4818 7.875 16.4833 8.28984 17.2217 9.02827C17.9602 9.76669 18.375 10.7682 18.375 11.8125V13.2129C18.375 16.5336 16.2514 19.5208 13.1106 20.6417C12.3156 20.9246 11.472 21.0449 10.6296 20.9955C9.78732 20.9462 8.9635 20.7281 8.20706 20.3543L6.97856 19.74C5.67052 19.0861 4.57041 18.0808 3.80148 16.8369C3.03254 15.593 2.62517 14.1595 2.625 12.6971V11.8125C2.625 10.7682 3.03984 9.76669 3.77827 9.02827C4.51669 8.28984 5.51821 7.875 6.5625 7.875H14.4375ZM23.625 11.1562C23.625 10.286 23.9707 9.45141 24.5861 8.83606C25.2014 8.2207 26.036 7.875 26.9062 7.875H36.0938C36.964 7.875 37.7986 8.2207 38.4139 8.83606C39.0293 9.45141 39.375 10.286 39.375 11.1562V12.6971C39.3748 14.1595 38.9675 15.593 38.1985 16.8369C37.4296 18.0808 36.3295 19.0861 35.0214 19.74L33.7929 20.3543C33.0371 20.7297 32.2132 20.9489 31.3706 20.9985C30.5281 21.0481 29.6842 20.9272 28.8894 20.643C25.7486 19.5208 23.625 16.5349 23.625 13.2129V11.1562Z" fill="#8D65C5"/>
<path d="M16.262 13.4768C17.0298 12.7077 16.8224 11.2534 15.7974 10.2284C14.7723 9.20331 13.3168 8.99462 12.5489 9.76375C11.7811 10.5329 11.9872 11.9871 13.0122 13.0122C14.0373 14.0372 15.4929 14.2459 16.2607 13.4768M37.262 13.4768C38.0298 12.7077 37.8224 11.2534 36.7974 10.2284C35.771 9.20331 34.3168 8.99462 33.5489 9.76375C32.7811 10.5329 32.9872 11.9871 34.0123 13.0122C35.0373 14.0372 36.4942 14.2459 37.262 13.4768Z" fill="white"/>
</svg>
