<svg width="42" height="42" viewBox="0 0 42 42" fill="none" xmlns="http://www.w3.org/2000/svg">
<path d="M20.9987 39.3724C33.2496 39.3724 39.3724 31.1456 39.3724 20.9974C39.3724 10.8518 33.2496 2.625 20.9974 2.625C8.74781 2.625 2.625 10.8517 2.625 20.9987C2.625 31.1456 8.7465 39.3724 20.9987 39.3724Z" fill="#FFB02E"/>
<path d="M13.676 21.294C14.408 21.3053 15.135 21.1709 15.8145 20.8986C16.4941 20.6263 17.1127 20.2215 17.6344 19.7078C18.156 19.1941 18.5703 18.5818 18.8531 17.9065C19.1358 17.2312 19.2815 16.5064 19.2815 15.7743C19.2815 15.0422 19.1358 14.3174 18.8531 13.6421C18.5703 12.9668 18.156 12.3545 17.6344 11.8409C17.1127 11.3272 16.4941 10.9224 15.8145 10.6501C15.135 10.3778 14.408 10.2433 13.676 10.2546C12.2268 10.277 10.8445 10.8683 9.82762 11.901C8.81071 12.9338 8.24072 14.325 8.24072 15.7743C8.24072 17.2237 8.81071 18.6149 9.82762 19.6476C10.8445 20.6803 12.2268 21.2717 13.676 21.294ZM28.3077 21.3951C29.7852 21.3951 31.2022 20.8082 32.247 19.7634C33.2917 18.7187 33.8786 17.3017 33.8786 15.8242C33.8786 14.3467 33.2917 12.9297 32.247 11.885C31.2022 10.8402 29.7852 10.2533 28.3077 10.2533C26.8301 10.2533 25.4129 10.8403 24.368 11.8852C23.3232 12.93 22.7362 14.3472 22.7362 15.8249C22.7362 17.3025 23.3232 18.7197 24.368 19.7645C25.4129 20.8094 26.8301 21.3951 28.3077 21.3951Z" fill="white"/>
<path d="M14.4375 19.6875C15.4818 19.6875 16.4833 19.2727 17.2217 18.5342C17.9602 17.7958 18.375 16.7943 18.375 15.75C18.375 14.7057 17.9602 13.7042 17.2217 12.9658C16.4833 12.2273 15.4818 11.8125 14.4375 11.8125C13.3932 11.8125 12.3917 12.2273 11.6533 12.9658C10.9148 13.7042 10.5 14.7057 10.5 15.75C10.5 16.7943 10.9148 17.7958 11.6533 18.5342C12.3917 19.2727 13.3932 19.6875 14.4375 19.6875ZM27.5625 19.6875C28.6068 19.6875 29.6083 19.2727 30.3467 18.5342C31.0852 17.7958 31.5 16.7943 31.5 15.75C31.5 14.7057 31.0852 13.7042 30.3467 12.9658C29.6083 12.2273 28.6068 11.8125 27.5625 11.8125C26.5182 11.8125 25.5167 12.2273 24.7783 12.9658C24.0398 13.7042 23.625 14.7057 23.625 15.75C23.625 16.7943 24.0398 17.7958 24.7783 18.5342C25.5167 19.2727 26.5182 19.6875 27.5625 19.6875Z" fill="#402A32"/>
<path fill-rule="evenodd" clip-rule="evenodd" d="M13.65 23.8875C13.7879 23.7841 13.9448 23.7088 14.1118 23.6661C14.2787 23.6233 14.4525 23.6138 14.6231 23.6382C14.7937 23.6626 14.9579 23.7203 15.1062 23.8081C15.2545 23.8959 15.3841 24.0121 15.4875 24.15C15.8944 24.6921 17.7345 26.25 21 26.25C24.2655 26.25 26.1056 24.6921 26.5125 24.15C26.6159 24.0121 26.7455 23.8959 26.8938 23.8081C27.0421 23.7203 27.2063 23.6626 27.3769 23.6382C27.5475 23.6138 27.7213 23.6233 27.8882 23.6661C28.0552 23.7088 28.2121 23.7841 28.35 23.8875C28.4879 23.9909 28.6041 24.1205 28.6919 24.2688C28.7797 24.4171 28.8374 24.5813 28.8618 24.7519C28.8862 24.9225 28.8767 25.0963 28.8339 25.2632C28.7912 25.4302 28.7159 25.5871 28.6125 25.725C27.7069 26.9325 25.0845 28.875 21 28.875C16.9155 28.875 14.2931 26.9325 13.3875 25.725C13.1786 25.4465 13.089 25.0965 13.1382 24.7519C13.1874 24.4073 13.3715 24.0964 13.65 23.8875Z" fill="#402A32"/>
</svg>
