<svg width="299" height="238" viewBox="0 0 299 238" fill="none" xmlns="http://www.w3.org/2000/svg">
<path d="M0 235.697V179.73H12.859L14.2146 190.226C16.2442 186.616 19.0057 183.74 22.5032 181.596C26.0046 179.449 30.1257 178.374 34.8664 178.374V193.611H30.7996C27.643 193.611 24.8233 194.103 22.3406 195.083C19.8559 196.059 17.9174 197.752 16.523 200.157C15.1325 202.564 14.4392 205.91 14.4392 210.196V235.697H0Z" fill="white"/>
<path d="M108.428 237.052C102.789 237.052 97.7865 235.848 93.4233 233.442C89.0582 231.037 85.6343 227.652 83.1516 223.287C80.6728 218.924 79.4333 213.883 79.4333 208.166C79.4333 202.372 80.6534 197.218 83.0974 192.704C85.5452 188.192 88.9304 184.675 93.2529 182.154C97.5792 179.634 102.676 178.373 108.544 178.373C114.033 178.373 118.882 179.58 123.092 181.991C127.306 184.398 130.598 187.69 132.969 191.867C135.339 196.041 136.524 200.683 136.524 205.795C136.524 206.622 136.505 207.488 136.47 208.391C136.433 209.295 136.377 210.234 136.3 211.21H93.7641C94.0624 215.575 95.5845 218.999 98.3268 221.482C101.073 223.961 104.404 225.2 108.32 225.2C111.252 225.2 113.715 224.546 115.71 223.233C117.702 221.916 119.188 220.204 120.164 218.097H134.835C133.782 221.629 132.031 224.844 129.583 227.741C127.139 230.638 124.132 232.916 120.559 234.573C116.984 236.225 112.94 237.052 108.428 237.052ZM108.544 190.109C105.006 190.109 101.882 191.106 99.1711 193.099C96.4638 195.094 94.7363 198.123 93.9888 202.186H121.86C121.632 198.498 120.276 195.566 117.793 193.386C115.309 191.201 112.226 190.109 108.544 190.109Z" fill="white"/>
<path d="M199.148 235.696L178.612 179.729H193.726L207.948 222.047L222.163 179.729H237.283L216.632 235.696H199.148Z" fill="white"/>
<path d="M284.561 235.696V179.729H299V235.696H284.561Z" fill="white"/>
<path d="M177.368 22.9277C177.291 24.0837 177.525 27.3005 177.601 28.5552C178.074 36.2076 179.061 43.8197 180.551 51.3404C181.208 54.5652 182.958 59.731 182.491 62.7747C180.625 74.962 183.479 85.6939 190.041 95.9997C188.891 95.7323 185.708 94.5404 184.562 94.0807C177.053 91.069 167.338 86.7073 160.557 82.2543C159.712 77.3506 159.517 74.396 159.372 69.3931C152.558 65.9632 146.52 64.1996 139.638 68.4223C140.093 82.2613 135.434 96.8866 127.726 108.319C125.72 111.309 124.065 113.288 121.735 116.052C121.48 107.151 120.533 98.2839 118.904 89.53C118.215 85.7935 117.229 82.2211 116.465 78.5633C116.133 76.9733 116.919 72.462 116.904 70.362C116.828 59.4362 114.304 51.5743 108.328 42.625C116.653 45.5503 124.256 48.6886 132.021 52.9199C133.828 53.9046 137.068 55.5471 138.604 56.8227C146.814 53.868 152.496 54.9094 160.41 57.8885C162.896 44.8168 168.172 32.7271 177.368 22.9277Z" fill="#FEFEFE"/>
<path d="M267.816 42.7115C274.671 44.5138 292.248 52.7114 297.993 56.7416C300.691 74.6093 298.111 90.6699 288.517 106.205C286.039 110.15 284.104 112.525 281.123 116.08C280.88 106.92 279.893 97.7948 278.167 88.7955C277.48 85.1334 276.414 81.5548 275.771 77.9461C275.679 75.9221 276.149 73.8882 276.243 71.8563C276.754 60.9231 273.759 51.7661 267.816 42.7115Z" fill="#FEFEFE"/>
<path d="M17.7767 23.0984C18.002 23.334 18.4423 32.155 18.5481 33.2838C19.1054 39.354 19.9738 45.3917 21.1499 51.3729C21.8663 54.9271 23.5718 59.5413 23.0588 63.0098C21.2577 75.186 24.1366 85.7432 30.6627 96.029C27.207 95.0589 22.1624 92.8821 18.8418 91.48C13.4812 89.1091 6.0965 85.4281 1.14934 82.2567C0.66117 79.6323 0.331221 76.9811 0.161201 74.317C-1.116 55.5661 5.23682 37.0946 17.7767 23.0984Z" fill="#FEFEFE"/>
<path d="M252.539 3.99231C253.997 4.54494 255.444 5.12939 256.877 5.74532C270.391 11.5002 281.973 21.8735 289.391 34.5789C292.077 39.1758 293.442 42.9636 295.39 47.8038C292.927 46.6517 290.221 45.0999 287.713 43.8701C284.198 42.1761 280.62 40.6208 276.984 39.2078C273.696 37.9297 270.364 36.7714 266.993 35.7355C265.824 35.3837 260.175 33.8358 259.677 33.4608C248.477 25.0062 240.126 22.5954 225.825 22.5526C229.669 18.9309 233.858 16.0969 238.014 12.9473C242.844 9.2866 247.399 7.02715 252.539 3.99231Z" fill="#FEFEFE"/>
<path d="M93.1213 4.0029C94.9102 4.65202 96.6748 5.36634 98.4116 6.14447C111.734 12.1587 122.834 22.203 130.146 34.862C132.7 39.3797 134.146 42.9763 135.958 47.7893C133.563 46.6727 130.906 45.1488 128.48 43.9501C125.007 42.2695 121.47 40.7257 117.876 39.3219C114.542 38.0197 111.162 36.839 107.742 35.7823C106.176 35.3075 101.598 34.0998 100.416 33.5044C98.6738 32.6269 96.0802 30.2851 93.91 29.0533C87.7378 25.5498 81.1236 23.2607 74.0264 22.667C71.8255 22.483 68.6826 22.5577 66.4126 22.5517C71.5864 17.8915 77.7422 13.3954 83.5492 9.47872C86.1949 7.69439 90.2256 5.72016 93.1213 4.0029Z" fill="#FEFEFE"/>
<path d="M226.207 0.101853C231.668 -0.316194 237.977 0.632308 243.344 1.50262C238.858 4.51531 234.162 7.23414 229.896 10.5626C228.054 12.0006 226.234 13.4054 224.437 14.903C222.21 16.7589 220.039 18.6807 217.928 20.6659C216.743 21.7907 214.56 23.9966 213.329 24.9275C212.263 25.732 209.121 26.8537 207.703 27.6072C201.205 31.0595 196.95 34.5489 192.247 40.1881C189.673 43.4789 188.539 45.4389 186.661 49.0622C186.528 47.8659 186.259 46.3801 186.028 45.1926C184.186 35.6745 184.042 26.3531 183.842 16.7183C185.257 15.0912 188.654 12.8947 190.51 11.6348C201.289 4.32334 213.272 0.814967 226.207 0.101853Z" fill="#FEFEFE"/>
<path d="M66.3275 0.123819C72.1417 -0.323246 78.2388 0.574306 83.9518 1.50503C80.4558 3.77256 76.7025 6.0936 73.2953 8.47042C70.0418 10.74 66.664 13.5204 63.6394 16.069C61.679 17.7361 59.7718 19.4645 57.9204 21.2515C56.9569 22.1739 55.1192 24.0301 54.1747 24.7281C52.689 25.8262 49.9533 26.7476 48.1717 27.6869C41.8351 31.0273 37.6899 34.4789 33.076 39.9C30.4189 43.2508 29.255 45.2401 27.3069 48.9299C25.0317 37.4894 24.5014 28.1871 24.4915 16.6661C25.8236 15.2019 29.3805 12.7842 31.1187 11.6233C41.9428 4.39396 53.392 0.902581 66.3275 0.123819Z" fill="#FEFEFE"/>
<path d="M271.283 90.8482C271.594 91.1413 272.006 93.8161 272.102 94.3859C273.171 100.554 273.853 106.783 274.144 113.036C274.284 116.073 274.139 119.532 274.355 122.441C273.84 123.054 273.342 123.45 272.719 123.935C256.545 136.543 239.196 140.896 219.081 138.559C217.795 138.393 215.893 137.949 214.577 137.684C219.928 135.83 233.64 124.271 238.377 120.147C240.197 118.562 242.501 116.058 244.358 114.546C246.022 113.374 248.183 112.82 249.992 111.91C259.446 107.152 266.363 100.212 271.283 90.8482Z" fill="#FEFEFE"/>
<path d="M111.874 90.8499C112.196 91.1592 112.641 94.0391 112.739 94.6295C113.772 100.656 114.439 106.74 114.737 112.847C114.862 115.576 114.69 119.973 114.969 122.423C114.406 123.037 113.973 123.43 113.325 123.935C97.1892 136.525 79.7773 140.892 59.7249 138.564C58.4118 138.379 56.635 138.017 55.366 137.661C60.5594 135.739 74.3721 124.181 79.0193 120.104C80.845 118.502 83.1873 115.944 85.0734 114.456C86.0898 113.654 88.8905 112.76 90.2903 112.07C94.5362 109.942 98.4691 107.239 101.978 104.037C106.257 100.096 109.213 95.9521 111.874 90.8499Z" fill="#FEFEFE"/>
<path d="M3.39441 91.5217C4.43711 91.894 8.28445 94.0065 9.56712 94.6421C13.1451 96.3855 16.7842 98.0001 20.478 99.4827C24.2689 100.983 28.1155 102.338 32.0094 103.545C33.7108 104.067 37.293 104.952 38.6578 105.552C40.2732 106.262 43.1832 108.692 45.0441 109.859C52.4482 114.504 64.0963 117.706 72.8757 116.658C70.7859 118.767 65.2213 123.104 62.7016 124.938L46.2103 135.233C44.29 134.529 42.396 133.756 40.5316 132.915C27.1445 126.775 16.0429 116.555 8.81657 103.72C6.53567 99.6435 5.01952 95.8678 3.39441 91.5217Z" fill="#FEFEFE"/>
<path d="M162.802 91.5311C164.02 91.9597 167.598 93.9645 169.006 94.6615C172.527 96.4004 176.121 97.9896 179.776 99.4251C183.517 100.922 187.314 102.271 191.161 103.469C192.99 104.034 197.05 105.077 198.499 105.742C199.654 106.272 202.736 108.858 204.333 109.826C212.385 114.703 222.793 117.549 232.25 116.68C229.978 118.937 224.818 122.952 222.16 124.897L205.591 135.236C203.776 134.564 201.983 133.833 200.215 133.043C186.519 126.839 175.194 116.369 167.935 103.198C165.722 99.1488 164.427 95.8315 162.802 91.5311Z" fill="#FEFEFE"/>
</svg>
